<?xml version="1.0" encoding="windows-1252" standalone="no"?>
<svg xmlns="http://www.w3.org/2000/svg" xmlns:xlink="http://www.w3.org/1999/xlink" contentStyleType="text/css" height="504px" preserveAspectRatio="none" style="width:369px;height:504px;background:#FFFFFF;" version="1.1" viewBox="0 0 369 504" width="369px" zoomAndPan="magnify"><defs/><g><text fill="#000000" font-family="sans-serif" font-size="14" font-weight="bold" lengthAdjust="spacing" textLength="206" x="74.75" y="22.9951">Docker Compose Diagram</text><!--entity User--><g id="elem_User"><ellipse cx="175.5" cy="51.2969" fill="#F1F1F1" rx="8" ry="8" style="stroke:#181818;stroke-width:0.5;"/><path d="M175.5,59.2969 L175.5,86.2969 M162.5,67.2969 L188.5,67.2969 M175.5,86.2969 L162.5,101.2969 M175.5,86.2969 L188.5,101.2969 " fill="none" style="stroke:#181818;stroke-width:0.5;"/><text fill="#000000" font-family="sans-serif" font-size="14" lengthAdjust="spacing" textLength="107" x="122" y="115.792">&#1055;&#1086;&#1083;&#1100;&#1079;&#1086;&#1074;&#1072;&#1090;&#1077;&#1083;&#1100;</text></g><!--entity DB1--><g id="elem_DB1"><path d="M14.5,451.7969 C14.5,441.7969 82.5,441.7969 82.5,441.7969 C82.5,441.7969 150.5,441.7969 150.5,451.7969 L150.5,477.0938 C150.5,487.0938 82.5,487.0938 82.5,487.0938 C82.5,487.0938 14.5,487.0938 14.5,477.0938 L14.5,451.7969 " fill="#F1F1F1" style="stroke:#181818;stroke-width:0.5;"/><path d="M14.5,451.7969 C14.5,461.7969 82.5,461.7969 82.5,461.7969 C82.5,461.7969 150.5,461.7969 150.5,451.7969 " fill="none" style="stroke:#181818;stroke-width:0.5;"/><text fill="#000000" font-family="sans-serif" font-size="14" lengthAdjust="spacing" textLength="116" x="24.5" y="478.792">PostgreSQL db1</text></g><!--entity DB2--><g id="elem_DB2"><path d="M186,451.7969 C186,441.7969 253.5,441.7969 253.5,441.7969 C253.5,441.7969 321,441.7969 321,451.7969 L321,477.0938 C321,487.0938 253.5,487.0938 253.5,487.0938 C253.5,487.0938 186,487.0938 186,477.0938 L186,451.7969 " fill="#F1F1F1" style="stroke:#181818;stroke-width:0.5;"/><path d="M186,451.7969 C186,461.7969 253.5,461.7969 253.5,461.7969 C253.5,461.7969 321,461.7969 321,451.7969 " fill="none" style="stroke:#181818;stroke-width:0.5;"/><text fill="#000000" font-family="sans-serif" font-size="14" lengthAdjust="spacing" textLength="115" x="196" y="478.792">PostgreSQL db2</text></g><!--entity App1--><g id="elem_App1"><polygon fill="#F1F1F1" points="16,328.7969,26,318.7969,151,318.7969,151,355.0938,141,365.0938,16,365.0938,16,328.7969" style="stroke:#181818;stroke-width:0.5;"/><line style="stroke:#181818;stroke-width:0.5;" x1="141" x2="151" y1="328.7969" y2="318.7969"/><line style="stroke:#181818;stroke-width:0.5;" x1="16" x2="141" y1="328.7969" y2="328.7969"/><line style="stroke:#181818;stroke-width:0.5;" x1="141" x2="141" y1="328.7969" y2="365.0938"/><text fill="#000000" font-family="sans-serif" font-size="14" lengthAdjust="spacing" textLength="95" x="31" y="351.792">GoLang app1</text></g><!--entity App2--><g id="elem_App2"><polygon fill="#F1F1F1" points="186.5,328.7969,196.5,318.7969,320.5,318.7969,320.5,355.0938,310.5,365.0938,186.5,365.0938,186.5,328.7969" style="stroke:#181818;stroke-width:0.5;"/><line style="stroke:#181818;stroke-width:0.5;" x1="310.5" x2="320.5" y1="328.7969" y2="318.7969"/><line style="stroke:#181818;stroke-width:0.5;" x1="186.5" x2="310.5" y1="328.7969" y2="328.7969"/><line style="stroke:#181818;stroke-width:0.5;" x1="310.5" x2="310.5" y1="328.7969" y2="365.0938"/><text fill="#000000" font-family="sans-serif" font-size="14" lengthAdjust="spacing" textLength="94" x="201.5" y="351.792">GoLang app2</text></g><!--entity AppNew--><g id="elem_AppNew"><polygon fill="#F1F1F1" points="111,205.7969,121,195.7969,240,195.7969,240,232.0938,230,242.0938,111,242.0938,111,205.7969" style="stroke:#181818;stroke-width:0.5;"/><line style="stroke:#181818;stroke-width:0.5;" x1="230" x2="240" y1="205.7969" y2="195.7969"/><line style="stroke:#181818;stroke-width:0.5;" x1="111" x2="230" y1="205.7969" y2="205.7969"/><line style="stroke:#181818;stroke-width:0.5;" x1="230" x2="230" y1="205.7969" y2="242.0938"/><text fill="#000000" font-family="sans-serif" font-size="14" lengthAdjust="spacing" textLength="89" x="126" y="228.792">Java appnew</text></g><!--link User to AppNew--><g id="link_User_AppNew"><path d="M175.5,118.9599 C175.5,143.4969 175.5,174.8319 175.5,195.5679 " fill="none" id="User-AppNew" style="stroke:#90EE90;stroke-width:1.0;"/><text fill="#000000" font-family="sans-serif" font-size="13" lengthAdjust="spacing" textLength="77" x="176.5" y="161.8638">&#1080;&#1089;&#1087;&#1086;&#1083;&#1100;&#1079;&#1091;&#1077;&#1090;</text></g><!--link AppNew to App1--><g id="link_AppNew_App1"><path d="M158.626,241.9899 C142.026,263.8229 120.4616,292.1847 103.8988,313.9677 " fill="none" id="AppNew-to-App1" style="stroke:#181818;stroke-width:1.0;"/><polygon fill="#181818" points="100.2672,318.7439,108.8987,314.0007,103.2935,314.7637,102.5305,309.1586,100.2672,318.7439" style="stroke:#181818;stroke-width:1.0;"/><text fill="#000000" font-family="sans-serif" font-size="13" lengthAdjust="spacing" textLength="63" x="136.5" y="284.8638">delegates</text></g><!--link AppNew to App2--><g id="link_AppNew_App2"><path d="M189.806,241.9899 C203.88,263.8229 221.9911,291.9179 236.0331,313.7009 " fill="none" id="AppNew-to-App2" style="stroke:#181818;stroke-width:1.0;"/><polygon fill="#181818" points="239.284,318.7439,237.7697,309.0121,236.5749,314.5414,231.0457,313.3466,239.284,318.7439" style="stroke:#181818;stroke-width:1.0;"/><text fill="#000000" font-family="sans-serif" font-size="13" lengthAdjust="spacing" textLength="63" x="220.5" y="284.8638">delegates</text></g><!--link App1 to DB1--><g id="link_App1_DB1"><path d="M83.3166,364.8989 C83.135,386.7769 82.8589,420.0549 82.6789,441.7409 " fill="none" id="App1-DB1" style="stroke:#ADD8E6;stroke-width:1.0;"/><text fill="#000000" font-family="sans-serif" font-size="13" lengthAdjust="spacing" textLength="107" x="84.5" y="407.8638">reads and writes</text></g><!--link App2 to DB2--><g id="link_App2_DB2"><path d="M253.5,364.8989 C253.5,386.7769 253.5,420.0549 253.5,441.7409 " fill="none" id="App2-DB2" style="stroke:#ADD8E6;stroke-width:1.0;"/><text fill="#000000" font-family="sans-serif" font-size="13" lengthAdjust="spacing" textLength="107" x="254.5" y="407.8638">reads and writes</text></g><!--SRC=[TO_FIWCn48VlUOgXdlUmEVOWg0L1Ib6A9_4msmnnSPiiIUgUhLVVmLSGeIW8-Wh96pdHNG_zSqg6x_lncmbrQ0WcTd5F3ixiihMUnngrmwN0HR0EualyYf_fERxp-nPVqpfkyWpeuTgJ4me3LiYvqQNrGJkQNqr1LUKe6vFJyf0WUq4AOnN3Spj5em7RzYzwmfyT90Sqf2xm0JCmr0reHft8cq5nSzJK-YvNahajUWPZY1_fCNuFTwMdk4bhqTEYEFwjParHGne3-IqcjrdvNrKrA-8cFfiTHwWye57GkRfNvQugzwW_]--></g></svg>